<mxfile host="app.diagrams.net" agent="Mozilla/5.0 (Windows NT 10.0; Win64; x64) AppleWebKit/537.36 (KHTML, like Gecko) Chrome/133.0.0.0 Safari/537.36" version="26.1.0" pages="3">
  <diagram name="Página-1" id="i8aU5O73W2RoYQw5BkKB">
    <mxGraphModel dx="3452" dy="2562" grid="1" gridSize="10" guides="1" tooltips="1" connect="1" arrows="1" fold="1" page="1" pageScale="1" pageWidth="827" pageHeight="1169" math="0" shadow="0">
      <root>
        <mxCell id="0" />
        <mxCell id="1" parent="0" />
        <mxCell id="5ZW-p2SO1EVHRi_Va51C-1" value="usuario" style="swimlane;fontStyle=0;childLayout=stackLayout;horizontal=1;startSize=30;horizontalStack=0;resizeParent=1;resizeParentMax=0;resizeLast=0;collapsible=1;marginBottom=0;whiteSpace=wrap;html=1;fillColor=#f8cecc;strokeColor=#b85450;" vertex="1" parent="1">
          <mxGeometry x="-370" y="30" width="140" height="210" as="geometry" />
        </mxCell>
        <mxCell id="5ZW-p2SO1EVHRi_Va51C-2" value="nome" style="text;strokeColor=#666666;fillColor=#f5f5f5;align=left;verticalAlign=middle;spacingLeft=4;spacingRight=4;overflow=hidden;points=[[0,0.5],[1,0.5]];portConstraint=eastwest;rotatable=0;whiteSpace=wrap;html=1;fontColor=#333333;" vertex="1" parent="5ZW-p2SO1EVHRi_Va51C-1">
          <mxGeometry y="30" width="140" height="30" as="geometry" />
        </mxCell>
        <mxCell id="5ZW-p2SO1EVHRi_Va51C-3" value="email" style="text;strokeColor=none;fillColor=none;align=left;verticalAlign=middle;spacingLeft=4;spacingRight=4;overflow=hidden;points=[[0,0.5],[1,0.5]];portConstraint=eastwest;rotatable=0;whiteSpace=wrap;html=1;" vertex="1" parent="5ZW-p2SO1EVHRi_Va51C-1">
          <mxGeometry y="60" width="140" height="30" as="geometry" />
        </mxCell>
        <mxCell id="5ZW-p2SO1EVHRi_Va51C-4" value="telefone" style="text;strokeColor=#666666;fillColor=#f5f5f5;align=left;verticalAlign=middle;spacingLeft=4;spacingRight=4;overflow=hidden;points=[[0,0.5],[1,0.5]];portConstraint=eastwest;rotatable=0;whiteSpace=wrap;html=1;fontColor=#333333;" vertex="1" parent="5ZW-p2SO1EVHRi_Va51C-1">
          <mxGeometry y="90" width="140" height="30" as="geometry" />
        </mxCell>
        <mxCell id="5ZW-p2SO1EVHRi_Va51C-5" value="data de nascimento&amp;nbsp;" style="text;strokeColor=none;fillColor=none;align=left;verticalAlign=middle;spacingLeft=4;spacingRight=4;overflow=hidden;points=[[0,0.5],[1,0.5]];portConstraint=eastwest;rotatable=0;whiteSpace=wrap;html=1;" vertex="1" parent="5ZW-p2SO1EVHRi_Va51C-1">
          <mxGeometry y="120" width="140" height="30" as="geometry" />
        </mxCell>
        <mxCell id="5ZW-p2SO1EVHRi_Va51C-6" value="endereço" style="text;strokeColor=#666666;fillColor=#f5f5f5;align=left;verticalAlign=middle;spacingLeft=4;spacingRight=4;overflow=hidden;points=[[0,0.5],[1,0.5]];portConstraint=eastwest;rotatable=0;whiteSpace=wrap;html=1;fontColor=#333333;" vertex="1" parent="5ZW-p2SO1EVHRi_Va51C-1">
          <mxGeometry y="150" width="140" height="30" as="geometry" />
        </mxCell>
        <mxCell id="5ZW-p2SO1EVHRi_Va51C-7" value="CPF" style="text;strokeColor=none;fillColor=none;align=left;verticalAlign=middle;spacingLeft=4;spacingRight=4;overflow=hidden;points=[[0,0.5],[1,0.5]];portConstraint=eastwest;rotatable=0;whiteSpace=wrap;html=1;" vertex="1" parent="5ZW-p2SO1EVHRi_Va51C-1">
          <mxGeometry y="180" width="140" height="30" as="geometry" />
        </mxCell>
        <mxCell id="5ZW-p2SO1EVHRi_Va51C-8" value="necessidades especiais" style="swimlane;fontStyle=0;childLayout=stackLayout;horizontal=1;startSize=30;horizontalStack=0;resizeParent=1;resizeParentMax=0;resizeLast=0;collapsible=1;marginBottom=0;whiteSpace=wrap;html=1;fillColor=#f8cecc;strokeColor=#b85450;" vertex="1" parent="1">
          <mxGeometry y="30" width="160" height="180" as="geometry" />
        </mxCell>
        <mxCell id="5ZW-p2SO1EVHRi_Va51C-9" value="nome" style="text;strokeColor=none;fillColor=none;align=left;verticalAlign=middle;spacingLeft=4;spacingRight=4;overflow=hidden;points=[[0,0.5],[1,0.5]];portConstraint=eastwest;rotatable=0;whiteSpace=wrap;html=1;" vertex="1" parent="5ZW-p2SO1EVHRi_Va51C-8">
          <mxGeometry y="30" width="160" height="30" as="geometry" />
        </mxCell>
        <mxCell id="5ZW-p2SO1EVHRi_Va51C-10" value="data de nascimento" style="text;strokeColor=#666666;fillColor=#f5f5f5;align=left;verticalAlign=middle;spacingLeft=4;spacingRight=4;overflow=hidden;points=[[0,0.5],[1,0.5]];portConstraint=eastwest;rotatable=0;whiteSpace=wrap;html=1;fontColor=#333333;" vertex="1" parent="5ZW-p2SO1EVHRi_Va51C-8">
          <mxGeometry y="60" width="160" height="30" as="geometry" />
        </mxCell>
        <mxCell id="5ZW-p2SO1EVHRi_Va51C-11" value="gênero" style="text;strokeColor=none;fillColor=none;align=left;verticalAlign=middle;spacingLeft=4;spacingRight=4;overflow=hidden;points=[[0,0.5],[1,0.5]];portConstraint=eastwest;rotatable=0;whiteSpace=wrap;html=1;" vertex="1" parent="5ZW-p2SO1EVHRi_Va51C-8">
          <mxGeometry y="90" width="160" height="30" as="geometry" />
        </mxCell>
        <mxCell id="5ZW-p2SO1EVHRi_Va51C-12" value="diagnostico" style="text;strokeColor=#666666;fillColor=#f5f5f5;align=left;verticalAlign=middle;spacingLeft=4;spacingRight=4;overflow=hidden;points=[[0,0.5],[1,0.5]];portConstraint=eastwest;rotatable=0;whiteSpace=wrap;html=1;fontColor=#333333;" vertex="1" parent="5ZW-p2SO1EVHRi_Va51C-8">
          <mxGeometry y="120" width="160" height="30" as="geometry" />
        </mxCell>
        <mxCell id="5ZW-p2SO1EVHRi_Va51C-13" value="necessidades" style="text;strokeColor=none;fillColor=none;align=left;verticalAlign=middle;spacingLeft=4;spacingRight=4;overflow=hidden;points=[[0,0.5],[1,0.5]];portConstraint=eastwest;rotatable=0;whiteSpace=wrap;html=1;" vertex="1" parent="5ZW-p2SO1EVHRi_Va51C-8">
          <mxGeometry y="150" width="160" height="30" as="geometry" />
        </mxCell>
        <mxCell id="5ZW-p2SO1EVHRi_Va51C-14" value="contato" style="swimlane;fontStyle=0;childLayout=stackLayout;horizontal=1;startSize=30;horizontalStack=0;resizeParent=1;resizeParentMax=0;resizeLast=0;collapsible=1;marginBottom=0;whiteSpace=wrap;html=1;fillColor=#f8cecc;strokeColor=#b85450;" vertex="1" parent="1">
          <mxGeometry x="-400" y="290" width="140" height="210" as="geometry" />
        </mxCell>
        <mxCell id="5ZW-p2SO1EVHRi_Va51C-15" value="nome" style="text;strokeColor=none;fillColor=none;align=left;verticalAlign=middle;spacingLeft=4;spacingRight=4;overflow=hidden;points=[[0,0.5],[1,0.5]];portConstraint=eastwest;rotatable=0;whiteSpace=wrap;html=1;" vertex="1" parent="5ZW-p2SO1EVHRi_Va51C-14">
          <mxGeometry y="30" width="140" height="30" as="geometry" />
        </mxCell>
        <mxCell id="5ZW-p2SO1EVHRi_Va51C-16" value="e-mail" style="text;strokeColor=#666666;fillColor=#f5f5f5;align=left;verticalAlign=middle;spacingLeft=4;spacingRight=4;overflow=hidden;points=[[0,0.5],[1,0.5]];portConstraint=eastwest;rotatable=0;whiteSpace=wrap;html=1;fontColor=#333333;" vertex="1" parent="5ZW-p2SO1EVHRi_Va51C-14">
          <mxGeometry y="60" width="140" height="30" as="geometry" />
        </mxCell>
        <mxCell id="5ZW-p2SO1EVHRi_Va51C-17" value="assunto" style="text;strokeColor=none;fillColor=none;align=left;verticalAlign=middle;spacingLeft=4;spacingRight=4;overflow=hidden;points=[[0,0.5],[1,0.5]];portConstraint=eastwest;rotatable=0;whiteSpace=wrap;html=1;" vertex="1" parent="5ZW-p2SO1EVHRi_Va51C-14">
          <mxGeometry y="90" width="140" height="30" as="geometry" />
        </mxCell>
        <mxCell id="5ZW-p2SO1EVHRi_Va51C-18" value="menssagem" style="text;strokeColor=#666666;fillColor=#f5f5f5;align=left;verticalAlign=middle;spacingLeft=4;spacingRight=4;overflow=hidden;points=[[0,0.5],[1,0.5]];portConstraint=eastwest;rotatable=0;whiteSpace=wrap;html=1;fontColor=#333333;" vertex="1" parent="5ZW-p2SO1EVHRi_Va51C-14">
          <mxGeometry y="120" width="140" height="30" as="geometry" />
        </mxCell>
        <mxCell id="5ZW-p2SO1EVHRi_Va51C-19" value="data_envio" style="text;strokeColor=none;fillColor=none;align=left;verticalAlign=middle;spacingLeft=4;spacingRight=4;overflow=hidden;points=[[0,0.5],[1,0.5]];portConstraint=eastwest;rotatable=0;whiteSpace=wrap;html=1;" vertex="1" parent="5ZW-p2SO1EVHRi_Va51C-14">
          <mxGeometry y="150" width="140" height="30" as="geometry" />
        </mxCell>
        <mxCell id="5ZW-p2SO1EVHRi_Va51C-20" value="respondido" style="text;strokeColor=#666666;fillColor=#f5f5f5;align=left;verticalAlign=middle;spacingLeft=4;spacingRight=4;overflow=hidden;points=[[0,0.5],[1,0.5]];portConstraint=eastwest;rotatable=0;whiteSpace=wrap;html=1;fontColor=#333333;" vertex="1" parent="5ZW-p2SO1EVHRi_Va51C-14">
          <mxGeometry y="180" width="140" height="30" as="geometry" />
        </mxCell>
        <mxCell id="5ZW-p2SO1EVHRi_Va51C-21" style="edgeStyle=orthogonalEdgeStyle;rounded=0;orthogonalLoop=1;jettySize=auto;html=1;entryX=0;entryY=0.5;entryDx=0;entryDy=0;" edge="1" parent="1" source="5ZW-p2SO1EVHRi_Va51C-22" target="5ZW-p2SO1EVHRi_Va51C-3">
          <mxGeometry relative="1" as="geometry" />
        </mxCell>
        <mxCell id="5ZW-p2SO1EVHRi_Va51C-22" value="blog" style="swimlane;fontStyle=0;childLayout=stackLayout;horizontal=1;startSize=30;horizontalStack=0;resizeParent=1;resizeParentMax=0;resizeLast=0;collapsible=1;marginBottom=0;whiteSpace=wrap;html=1;fillColor=#f8cecc;strokeColor=#b85450;" vertex="1" parent="1">
          <mxGeometry x="-590" y="170" width="140" height="180" as="geometry" />
        </mxCell>
        <mxCell id="5ZW-p2SO1EVHRi_Va51C-23" value="titulo" style="text;strokeColor=none;fillColor=none;align=left;verticalAlign=middle;spacingLeft=4;spacingRight=4;overflow=hidden;points=[[0,0.5],[1,0.5]];portConstraint=eastwest;rotatable=0;whiteSpace=wrap;html=1;" vertex="1" parent="5ZW-p2SO1EVHRi_Va51C-22">
          <mxGeometry y="30" width="140" height="30" as="geometry" />
        </mxCell>
        <mxCell id="5ZW-p2SO1EVHRi_Va51C-24" value="conteudo" style="text;strokeColor=#666666;fillColor=#f5f5f5;align=left;verticalAlign=middle;spacingLeft=4;spacingRight=4;overflow=hidden;points=[[0,0.5],[1,0.5]];portConstraint=eastwest;rotatable=0;whiteSpace=wrap;html=1;fontColor=#333333;" vertex="1" parent="5ZW-p2SO1EVHRi_Va51C-22">
          <mxGeometry y="60" width="140" height="30" as="geometry" />
        </mxCell>
        <mxCell id="5ZW-p2SO1EVHRi_Va51C-25" value="data_publicação" style="text;strokeColor=none;fillColor=none;align=left;verticalAlign=middle;spacingLeft=4;spacingRight=4;overflow=hidden;points=[[0,0.5],[1,0.5]];portConstraint=eastwest;rotatable=0;whiteSpace=wrap;html=1;" vertex="1" parent="5ZW-p2SO1EVHRi_Va51C-22">
          <mxGeometry y="90" width="140" height="30" as="geometry" />
        </mxCell>
        <mxCell id="5ZW-p2SO1EVHRi_Va51C-26" value="autor" style="text;strokeColor=#666666;fillColor=#f5f5f5;align=left;verticalAlign=middle;spacingLeft=4;spacingRight=4;overflow=hidden;points=[[0,0.5],[1,0.5]];portConstraint=eastwest;rotatable=0;whiteSpace=wrap;html=1;fontColor=#333333;" vertex="1" parent="5ZW-p2SO1EVHRi_Va51C-22">
          <mxGeometry y="120" width="140" height="30" as="geometry" />
        </mxCell>
        <mxCell id="5ZW-p2SO1EVHRi_Va51C-27" value="comentarios" style="text;strokeColor=none;fillColor=none;align=left;verticalAlign=middle;spacingLeft=4;spacingRight=4;overflow=hidden;points=[[0,0.5],[1,0.5]];portConstraint=eastwest;rotatable=0;whiteSpace=wrap;html=1;" vertex="1" parent="5ZW-p2SO1EVHRi_Va51C-22">
          <mxGeometry y="150" width="140" height="30" as="geometry" />
        </mxCell>
        <mxCell id="5ZW-p2SO1EVHRi_Va51C-28" value="sugestão" style="swimlane;fontStyle=0;childLayout=stackLayout;horizontal=1;startSize=30;horizontalStack=0;resizeParent=1;resizeParentMax=0;resizeLast=0;collapsible=1;marginBottom=0;whiteSpace=wrap;html=1;fillColor=#f8cecc;strokeColor=#b85450;" vertex="1" parent="1">
          <mxGeometry x="-100" y="270" width="140" height="120" as="geometry" />
        </mxCell>
        <mxCell id="5ZW-p2SO1EVHRi_Va51C-29" value="nome" style="text;strokeColor=#666666;fillColor=#f5f5f5;align=left;verticalAlign=middle;spacingLeft=4;spacingRight=4;overflow=hidden;points=[[0,0.5],[1,0.5]];portConstraint=eastwest;rotatable=0;whiteSpace=wrap;html=1;fontColor=#333333;" vertex="1" parent="5ZW-p2SO1EVHRi_Va51C-28">
          <mxGeometry y="30" width="140" height="30" as="geometry" />
        </mxCell>
        <mxCell id="5ZW-p2SO1EVHRi_Va51C-30" value="descrição" style="text;strokeColor=none;fillColor=none;align=left;verticalAlign=middle;spacingLeft=4;spacingRight=4;overflow=hidden;points=[[0,0.5],[1,0.5]];portConstraint=eastwest;rotatable=0;whiteSpace=wrap;html=1;" vertex="1" parent="5ZW-p2SO1EVHRi_Va51C-28">
          <mxGeometry y="60" width="140" height="30" as="geometry" />
        </mxCell>
        <mxCell id="5ZW-p2SO1EVHRi_Va51C-31" value="tipo_sugestão" style="text;strokeColor=#666666;fillColor=#f5f5f5;align=left;verticalAlign=middle;spacingLeft=4;spacingRight=4;overflow=hidden;points=[[0,0.5],[1,0.5]];portConstraint=eastwest;rotatable=0;whiteSpace=wrap;html=1;fontColor=#333333;" vertex="1" parent="5ZW-p2SO1EVHRi_Va51C-28">
          <mxGeometry y="90" width="140" height="30" as="geometry" />
        </mxCell>
        <mxCell id="5ZW-p2SO1EVHRi_Va51C-32" value="direito" style="swimlane;fontStyle=0;childLayout=stackLayout;horizontal=1;startSize=30;horizontalStack=0;resizeParent=1;resizeParentMax=0;resizeLast=0;collapsible=1;marginBottom=0;whiteSpace=wrap;html=1;fillColor=#f8cecc;strokeColor=#b85450;" vertex="1" parent="1">
          <mxGeometry x="210" y="280" width="140" height="180" as="geometry" />
        </mxCell>
        <mxCell id="5ZW-p2SO1EVHRi_Va51C-33" value="Título" style="text;strokeColor=#666666;fillColor=#f5f5f5;align=left;verticalAlign=middle;spacingLeft=4;spacingRight=4;overflow=hidden;points=[[0,0.5],[1,0.5]];portConstraint=eastwest;rotatable=0;whiteSpace=wrap;html=1;fontColor=#333333;" vertex="1" parent="5ZW-p2SO1EVHRi_Va51C-32">
          <mxGeometry y="30" width="140" height="30" as="geometry" />
        </mxCell>
        <mxCell id="5ZW-p2SO1EVHRi_Va51C-34" value="Descrição" style="text;strokeColor=none;fillColor=none;align=left;verticalAlign=middle;spacingLeft=4;spacingRight=4;overflow=hidden;points=[[0,0.5],[1,0.5]];portConstraint=eastwest;rotatable=0;whiteSpace=wrap;html=1;" vertex="1" parent="5ZW-p2SO1EVHRi_Va51C-32">
          <mxGeometry y="60" width="140" height="30" as="geometry" />
        </mxCell>
        <mxCell id="5ZW-p2SO1EVHRi_Va51C-35" value="&lt;code&gt;Lei_Referência&lt;/code&gt;" style="text;strokeColor=#666666;fillColor=#f5f5f5;align=left;verticalAlign=middle;spacingLeft=4;spacingRight=4;overflow=hidden;points=[[0,0.5],[1,0.5]];portConstraint=eastwest;rotatable=0;whiteSpace=wrap;html=1;fontColor=#333333;" vertex="1" parent="5ZW-p2SO1EVHRi_Va51C-32">
          <mxGeometry y="90" width="140" height="30" as="geometry" />
        </mxCell>
        <mxCell id="5ZW-p2SO1EVHRi_Va51C-36" value="&lt;code&gt;Link_Referência&lt;/code&gt;" style="text;strokeColor=none;fillColor=none;align=left;verticalAlign=middle;spacingLeft=4;spacingRight=4;overflow=hidden;points=[[0,0.5],[1,0.5]];portConstraint=eastwest;rotatable=0;whiteSpace=wrap;html=1;" vertex="1" parent="5ZW-p2SO1EVHRi_Va51C-32">
          <mxGeometry y="120" width="140" height="30" as="geometry" />
        </mxCell>
        <mxCell id="5ZW-p2SO1EVHRi_Va51C-37" value="&lt;code&gt;Tipo_Necessidade&lt;/code&gt;" style="text;strokeColor=#666666;fillColor=#f5f5f5;align=left;verticalAlign=middle;spacingLeft=4;spacingRight=4;overflow=hidden;points=[[0,0.5],[1,0.5]];portConstraint=eastwest;rotatable=0;whiteSpace=wrap;html=1;fontColor=#333333;" vertex="1" parent="5ZW-p2SO1EVHRi_Va51C-32">
          <mxGeometry y="150" width="140" height="30" as="geometry" />
        </mxCell>
        <mxCell id="5ZW-p2SO1EVHRi_Va51C-38" value="profissionais" style="swimlane;fontStyle=0;childLayout=stackLayout;horizontal=1;startSize=30;horizontalStack=0;resizeParent=1;resizeParentMax=0;resizeLast=0;collapsible=1;marginBottom=0;whiteSpace=wrap;html=1;fillColor=#f8cecc;strokeColor=#b85450;" vertex="1" parent="1">
          <mxGeometry x="-160" y="-160" width="140" height="180" as="geometry" />
        </mxCell>
        <mxCell id="5ZW-p2SO1EVHRi_Va51C-39" value="nome" style="text;strokeColor=none;fillColor=none;align=left;verticalAlign=middle;spacingLeft=4;spacingRight=4;overflow=hidden;points=[[0,0.5],[1,0.5]];portConstraint=eastwest;rotatable=0;whiteSpace=wrap;html=1;" vertex="1" parent="5ZW-p2SO1EVHRi_Va51C-38">
          <mxGeometry y="30" width="140" height="30" as="geometry" />
        </mxCell>
        <mxCell id="5ZW-p2SO1EVHRi_Va51C-40" value="tipo_profissional" style="text;strokeColor=#666666;fillColor=#f5f5f5;align=left;verticalAlign=middle;spacingLeft=4;spacingRight=4;overflow=hidden;points=[[0,0.5],[1,0.5]];portConstraint=eastwest;rotatable=0;whiteSpace=wrap;html=1;fontColor=#333333;" vertex="1" parent="5ZW-p2SO1EVHRi_Va51C-38">
          <mxGeometry y="60" width="140" height="30" as="geometry" />
        </mxCell>
        <mxCell id="5ZW-p2SO1EVHRi_Va51C-41" value="contato" style="text;strokeColor=none;fillColor=none;align=left;verticalAlign=middle;spacingLeft=4;spacingRight=4;overflow=hidden;points=[[0,0.5],[1,0.5]];portConstraint=eastwest;rotatable=0;whiteSpace=wrap;html=1;" vertex="1" parent="5ZW-p2SO1EVHRi_Va51C-38">
          <mxGeometry y="90" width="140" height="30" as="geometry" />
        </mxCell>
        <mxCell id="5ZW-p2SO1EVHRi_Va51C-42" value="instituição" style="text;strokeColor=#666666;fillColor=#f5f5f5;align=left;verticalAlign=middle;spacingLeft=4;spacingRight=4;overflow=hidden;points=[[0,0.5],[1,0.5]];portConstraint=eastwest;rotatable=0;whiteSpace=wrap;html=1;fontColor=#333333;" vertex="1" parent="5ZW-p2SO1EVHRi_Va51C-38">
          <mxGeometry y="120" width="140" height="30" as="geometry" />
        </mxCell>
        <mxCell id="5ZW-p2SO1EVHRi_Va51C-43" value="criança" style="text;strokeColor=none;fillColor=none;align=left;verticalAlign=middle;spacingLeft=4;spacingRight=4;overflow=hidden;points=[[0,0.5],[1,0.5]];portConstraint=eastwest;rotatable=0;whiteSpace=wrap;html=1;" vertex="1" parent="5ZW-p2SO1EVHRi_Va51C-38">
          <mxGeometry y="150" width="140" height="30" as="geometry" />
        </mxCell>
        <mxCell id="5ZW-p2SO1EVHRi_Va51C-44" value="doação" style="swimlane;fontStyle=0;childLayout=stackLayout;horizontal=1;startSize=30;horizontalStack=0;resizeParent=1;resizeParentMax=0;resizeLast=0;collapsible=1;marginBottom=0;whiteSpace=wrap;html=1;fillColor=#f8cecc;strokeColor=#b85450;" vertex="1" parent="1">
          <mxGeometry x="-40" y="420" width="140" height="180" as="geometry" />
        </mxCell>
        <mxCell id="5ZW-p2SO1EVHRi_Va51C-45" value="usuario" style="text;strokeColor=none;fillColor=none;align=left;verticalAlign=middle;spacingLeft=4;spacingRight=4;overflow=hidden;points=[[0,0.5],[1,0.5]];portConstraint=eastwest;rotatable=0;whiteSpace=wrap;html=1;" vertex="1" parent="5ZW-p2SO1EVHRi_Va51C-44">
          <mxGeometry y="30" width="140" height="30" as="geometry" />
        </mxCell>
        <mxCell id="5ZW-p2SO1EVHRi_Va51C-46" value="valor" style="text;strokeColor=#666666;fillColor=#f5f5f5;align=left;verticalAlign=middle;spacingLeft=4;spacingRight=4;overflow=hidden;points=[[0,0.5],[1,0.5]];portConstraint=eastwest;rotatable=0;whiteSpace=wrap;html=1;fontColor=#333333;" vertex="1" parent="5ZW-p2SO1EVHRi_Va51C-44">
          <mxGeometry y="60" width="140" height="30" as="geometry" />
        </mxCell>
        <mxCell id="5ZW-p2SO1EVHRi_Va51C-47" value="data_doação" style="text;strokeColor=none;fillColor=none;align=left;verticalAlign=middle;spacingLeft=4;spacingRight=4;overflow=hidden;points=[[0,0.5],[1,0.5]];portConstraint=eastwest;rotatable=0;whiteSpace=wrap;html=1;" vertex="1" parent="5ZW-p2SO1EVHRi_Va51C-44">
          <mxGeometry y="90" width="140" height="30" as="geometry" />
        </mxCell>
        <mxCell id="5ZW-p2SO1EVHRi_Va51C-48" value="metodo_pagamento" style="text;strokeColor=#666666;fillColor=#f5f5f5;align=left;verticalAlign=middle;spacingLeft=4;spacingRight=4;overflow=hidden;points=[[0,0.5],[1,0.5]];portConstraint=eastwest;rotatable=0;whiteSpace=wrap;html=1;fontColor=#333333;" vertex="1" parent="5ZW-p2SO1EVHRi_Va51C-44">
          <mxGeometry y="120" width="140" height="30" as="geometry" />
        </mxCell>
        <mxCell id="5ZW-p2SO1EVHRi_Va51C-49" value="observações" style="text;strokeColor=none;fillColor=none;align=left;verticalAlign=middle;spacingLeft=4;spacingRight=4;overflow=hidden;points=[[0,0.5],[1,0.5]];portConstraint=eastwest;rotatable=0;whiteSpace=wrap;html=1;" vertex="1" parent="5ZW-p2SO1EVHRi_Va51C-44">
          <mxGeometry y="150" width="140" height="30" as="geometry" />
        </mxCell>
        <mxCell id="5ZW-p2SO1EVHRi_Va51C-50" style="edgeStyle=orthogonalEdgeStyle;rounded=0;orthogonalLoop=1;jettySize=auto;html=1;entryX=0;entryY=0.111;entryDx=0;entryDy=0;entryPerimeter=0;exitX=1.015;exitY=0.053;exitDx=0;exitDy=0;exitPerimeter=0;" edge="1" parent="1" source="5ZW-p2SO1EVHRi_Va51C-1" target="5ZW-p2SO1EVHRi_Va51C-8">
          <mxGeometry relative="1" as="geometry" />
        </mxCell>
        <mxCell id="5ZW-p2SO1EVHRi_Va51C-51" style="edgeStyle=orthogonalEdgeStyle;rounded=0;orthogonalLoop=1;jettySize=auto;html=1;entryX=0.5;entryY=0;entryDx=0;entryDy=0;" edge="1" parent="1" source="5ZW-p2SO1EVHRi_Va51C-2" target="5ZW-p2SO1EVHRi_Va51C-28">
          <mxGeometry relative="1" as="geometry">
            <mxPoint x="-203" y="380" as="targetPoint" />
          </mxGeometry>
        </mxCell>
        <mxCell id="5ZW-p2SO1EVHRi_Va51C-52" style="edgeStyle=orthogonalEdgeStyle;rounded=0;orthogonalLoop=1;jettySize=auto;html=1;entryX=0;entryY=0.5;entryDx=0;entryDy=0;exitX=1.011;exitY=0.193;exitDx=0;exitDy=0;exitPerimeter=0;" edge="1" parent="1" source="5ZW-p2SO1EVHRi_Va51C-13" target="5ZW-p2SO1EVHRi_Va51C-34">
          <mxGeometry relative="1" as="geometry" />
        </mxCell>
        <mxCell id="5ZW-p2SO1EVHRi_Va51C-53" style="edgeStyle=orthogonalEdgeStyle;rounded=0;orthogonalLoop=1;jettySize=auto;html=1;exitX=1;exitY=0.5;exitDx=0;exitDy=0;entryX=0;entryY=0.5;entryDx=0;entryDy=0;" edge="1" parent="1" source="5ZW-p2SO1EVHRi_Va51C-7" target="5ZW-p2SO1EVHRi_Va51C-45">
          <mxGeometry relative="1" as="geometry" />
        </mxCell>
        <mxCell id="5ZW-p2SO1EVHRi_Va51C-54" style="edgeStyle=orthogonalEdgeStyle;rounded=0;orthogonalLoop=1;jettySize=auto;html=1;exitX=0;exitY=0.5;exitDx=0;exitDy=0;entryX=1.004;entryY=0.076;entryDx=0;entryDy=0;entryPerimeter=0;" edge="1" parent="1" source="5ZW-p2SO1EVHRi_Va51C-49" target="5ZW-p2SO1EVHRi_Va51C-14">
          <mxGeometry relative="1" as="geometry" />
        </mxCell>
        <mxCell id="5ZW-p2SO1EVHRi_Va51C-55" style="edgeStyle=orthogonalEdgeStyle;rounded=0;orthogonalLoop=1;jettySize=auto;html=1;exitX=0.5;exitY=0;exitDx=0;exitDy=0;" edge="1" parent="1" source="5ZW-p2SO1EVHRi_Va51C-1" target="5ZW-p2SO1EVHRi_Va51C-38">
          <mxGeometry relative="1" as="geometry">
            <mxPoint x="-280" y="-200" as="targetPoint" />
            <Array as="points">
              <mxPoint x="-300" y="-120" />
              <mxPoint x="-279" y="-120" />
              <mxPoint x="-279" y="-200" />
              <mxPoint x="-90" y="-200" />
            </Array>
          </mxGeometry>
        </mxCell>
        <mxCell id="5ZW-p2SO1EVHRi_Va51C-56" style="edgeStyle=orthogonalEdgeStyle;rounded=0;orthogonalLoop=1;jettySize=auto;html=1;entryX=0;entryY=0.095;entryDx=0;entryDy=0;entryPerimeter=0;" edge="1" parent="1" source="5ZW-p2SO1EVHRi_Va51C-14" target="5ZW-p2SO1EVHRi_Va51C-1">
          <mxGeometry relative="1" as="geometry" />
        </mxCell>
      </root>
    </mxGraphModel>
  </diagram>
  <diagram id="XY3OEVhqNil7oMedrXXp" name="Página-2">
    <mxGraphModel dx="2327" dy="1965" grid="1" gridSize="10" guides="1" tooltips="1" connect="1" arrows="1" fold="1" page="1" pageScale="1" pageWidth="827" pageHeight="1169" math="0" shadow="0">
      <root>
        <mxCell id="0" />
        <mxCell id="1" parent="0" />
        <mxCell id="1_bLVVybKre5JMQFerOB-1" style="edgeStyle=orthogonalEdgeStyle;rounded=0;orthogonalLoop=1;jettySize=auto;html=1;entryX=0;entryY=0.5;entryDx=0;entryDy=0;" edge="1" parent="1" source="1_bLVVybKre5JMQFerOB-6" target="1_bLVVybKre5JMQFerOB-8">
          <mxGeometry relative="1" as="geometry" />
        </mxCell>
        <mxCell id="1_bLVVybKre5JMQFerOB-2" style="edgeStyle=orthogonalEdgeStyle;rounded=0;orthogonalLoop=1;jettySize=auto;html=1;entryX=0.447;entryY=0.973;entryDx=0;entryDy=0;entryPerimeter=0;" edge="1" parent="1" source="1_bLVVybKre5JMQFerOB-45" target="1_bLVVybKre5JMQFerOB-17">
          <mxGeometry relative="1" as="geometry" />
        </mxCell>
        <mxCell id="1_bLVVybKre5JMQFerOB-3" style="edgeStyle=orthogonalEdgeStyle;rounded=0;orthogonalLoop=1;jettySize=auto;html=1;entryX=1;entryY=0.5;entryDx=0;entryDy=0;" edge="1" parent="1" source="1_bLVVybKre5JMQFerOB-6" target="1_bLVVybKre5JMQFerOB-26">
          <mxGeometry relative="1" as="geometry" />
        </mxCell>
        <mxCell id="1_bLVVybKre5JMQFerOB-4" style="edgeStyle=orthogonalEdgeStyle;rounded=0;orthogonalLoop=1;jettySize=auto;html=1;" edge="1" parent="1" source="1_bLVVybKre5JMQFerOB-6" target="1_bLVVybKre5JMQFerOB-24">
          <mxGeometry relative="1" as="geometry" />
        </mxCell>
        <mxCell id="1_bLVVybKre5JMQFerOB-5" style="edgeStyle=orthogonalEdgeStyle;rounded=0;orthogonalLoop=1;jettySize=auto;html=1;entryX=0.5;entryY=0;entryDx=0;entryDy=0;" edge="1" parent="1" source="1_bLVVybKre5JMQFerOB-6" target="1_bLVVybKre5JMQFerOB-31">
          <mxGeometry relative="1" as="geometry" />
        </mxCell>
        <mxCell id="1_bLVVybKre5JMQFerOB-6" value="usuario" style="rounded=0;whiteSpace=wrap;html=1;fillColor=#f8cecc;strokeColor=#b85450;" vertex="1" parent="1">
          <mxGeometry x="40" y="110" width="120" height="60" as="geometry" />
        </mxCell>
        <mxCell id="1_bLVVybKre5JMQFerOB-7" style="edgeStyle=orthogonalEdgeStyle;rounded=0;orthogonalLoop=1;jettySize=auto;html=1;" edge="1" parent="1" source="1_bLVVybKre5JMQFerOB-8" target="1_bLVVybKre5JMQFerOB-11">
          <mxGeometry relative="1" as="geometry">
            <Array as="points">
              <mxPoint x="530" y="150" />
            </Array>
          </mxGeometry>
        </mxCell>
        <mxCell id="1_bLVVybKre5JMQFerOB-8" value="realiza" style="rhombus;whiteSpace=wrap;html=1;fillColor=#f5f5f5;fontColor=#333333;strokeColor=#666666;" vertex="1" parent="1">
          <mxGeometry x="340" y="138" width="80" height="80" as="geometry" />
        </mxCell>
        <mxCell id="1_bLVVybKre5JMQFerOB-9" style="edgeStyle=orthogonalEdgeStyle;rounded=0;orthogonalLoop=1;jettySize=auto;html=1;entryX=1;entryY=0.75;entryDx=0;entryDy=0;" edge="1" parent="1" source="1_bLVVybKre5JMQFerOB-27" target="1_bLVVybKre5JMQFerOB-21">
          <mxGeometry relative="1" as="geometry" />
        </mxCell>
        <mxCell id="1_bLVVybKre5JMQFerOB-10" style="edgeStyle=orthogonalEdgeStyle;rounded=0;orthogonalLoop=1;jettySize=auto;html=1;" edge="1" parent="1" source="1_bLVVybKre5JMQFerOB-11" target="1_bLVVybKre5JMQFerOB-27">
          <mxGeometry relative="1" as="geometry" />
        </mxCell>
        <mxCell id="1_bLVVybKre5JMQFerOB-11" value="necessidades especiais/criança" style="rounded=0;whiteSpace=wrap;html=1;fillColor=#f8cecc;strokeColor=#b85450;" vertex="1" parent="1">
          <mxGeometry x="490" y="60" width="120" height="60" as="geometry" />
        </mxCell>
        <mxCell id="1_bLVVybKre5JMQFerOB-12" value="1,n" style="text;html=1;align=center;verticalAlign=middle;resizable=0;points=[];autosize=1;strokeColor=none;fillColor=none;" vertex="1" parent="1">
          <mxGeometry x="170" y="70" width="40" height="30" as="geometry" />
        </mxCell>
        <mxCell id="1_bLVVybKre5JMQFerOB-13" value="1,n" style="text;html=1;align=center;verticalAlign=middle;resizable=0;points=[];autosize=1;strokeColor=none;fillColor=none;" vertex="1" parent="1">
          <mxGeometry x="290" y="150" width="40" height="30" as="geometry" />
        </mxCell>
        <mxCell id="1_bLVVybKre5JMQFerOB-14" value="profissionais&amp;nbsp;" style="rounded=0;whiteSpace=wrap;html=1;fillColor=#f8cecc;strokeColor=#b85450;" vertex="1" parent="1">
          <mxGeometry x="-310" y="20" width="120" height="60" as="geometry" />
        </mxCell>
        <mxCell id="1_bLVVybKre5JMQFerOB-15" style="edgeStyle=orthogonalEdgeStyle;rounded=0;orthogonalLoop=1;jettySize=auto;html=1;entryX=0.5;entryY=0;entryDx=0;entryDy=0;" edge="1" parent="1" source="1_bLVVybKre5JMQFerOB-17" target="1_bLVVybKre5JMQFerOB-43">
          <mxGeometry relative="1" as="geometry" />
        </mxCell>
        <mxCell id="1_bLVVybKre5JMQFerOB-16" style="edgeStyle=orthogonalEdgeStyle;rounded=0;orthogonalLoop=1;jettySize=auto;html=1;" edge="1" parent="1" source="1_bLVVybKre5JMQFerOB-48" target="1_bLVVybKre5JMQFerOB-14">
          <mxGeometry relative="1" as="geometry" />
        </mxCell>
        <mxCell id="1_bLVVybKre5JMQFerOB-17" value="blog" style="rounded=0;whiteSpace=wrap;html=1;fillColor=#f8cecc;strokeColor=#b85450;" vertex="1" parent="1">
          <mxGeometry x="190" y="-200" width="120" height="60" as="geometry" />
        </mxCell>
        <mxCell id="1_bLVVybKre5JMQFerOB-18" value="contato" style="rounded=0;whiteSpace=wrap;html=1;fillColor=#f8cecc;strokeColor=#b85450;" vertex="1" parent="1">
          <mxGeometry x="50" y="430" width="120" height="60" as="geometry" />
        </mxCell>
        <mxCell id="1_bLVVybKre5JMQFerOB-19" value="sugestão" style="rounded=0;whiteSpace=wrap;html=1;fillColor=#f8cecc;strokeColor=#b85450;" vertex="1" parent="1">
          <mxGeometry x="220" y="420" width="120" height="60" as="geometry" />
        </mxCell>
        <mxCell id="1_bLVVybKre5JMQFerOB-20" value="doação" style="rounded=0;whiteSpace=wrap;html=1;fillColor=#f8cecc;strokeColor=#b85450;" vertex="1" parent="1">
          <mxGeometry x="-340" y="220" width="120" height="60" as="geometry" />
        </mxCell>
        <mxCell id="1_bLVVybKre5JMQFerOB-21" value="direito" style="rounded=0;whiteSpace=wrap;html=1;fillColor=#f8cecc;strokeColor=#b85450;" vertex="1" parent="1">
          <mxGeometry x="370" y="330" width="120" height="60" as="geometry" />
        </mxCell>
        <mxCell id="1_bLVVybKre5JMQFerOB-22" style="edgeStyle=orthogonalEdgeStyle;rounded=0;orthogonalLoop=1;jettySize=auto;html=1;entryX=0.458;entryY=-0.039;entryDx=0;entryDy=0;entryPerimeter=0;" edge="1" parent="1" source="1_bLVVybKre5JMQFerOB-29" target="1_bLVVybKre5JMQFerOB-18">
          <mxGeometry relative="1" as="geometry">
            <Array as="points">
              <mxPoint x="105" y="370" />
            </Array>
          </mxGeometry>
        </mxCell>
        <mxCell id="1_bLVVybKre5JMQFerOB-23" style="edgeStyle=orthogonalEdgeStyle;rounded=0;orthogonalLoop=1;jettySize=auto;html=1;entryX=1;entryY=0.5;entryDx=0;entryDy=0;" edge="1" parent="1" source="1_bLVVybKre5JMQFerOB-24" target="1_bLVVybKre5JMQFerOB-20">
          <mxGeometry relative="1" as="geometry" />
        </mxCell>
        <mxCell id="1_bLVVybKre5JMQFerOB-24" value="realiza" style="rhombus;whiteSpace=wrap;html=1;fillColor=#f5f5f5;fontColor=#333333;strokeColor=#666666;" vertex="1" parent="1">
          <mxGeometry x="-110" y="160" width="80" height="80" as="geometry" />
        </mxCell>
        <mxCell id="1_bLVVybKre5JMQFerOB-25" style="edgeStyle=orthogonalEdgeStyle;rounded=0;orthogonalLoop=1;jettySize=auto;html=1;entryX=1;entryY=0.5;entryDx=0;entryDy=0;" edge="1" parent="1" source="1_bLVVybKre5JMQFerOB-26" target="1_bLVVybKre5JMQFerOB-14">
          <mxGeometry relative="1" as="geometry" />
        </mxCell>
        <mxCell id="1_bLVVybKre5JMQFerOB-26" value="possui" style="rhombus;whiteSpace=wrap;html=1;fillColor=#f5f5f5;fontColor=#333333;strokeColor=#666666;" vertex="1" parent="1">
          <mxGeometry x="-30" y="-85" width="80" height="70" as="geometry" />
        </mxCell>
        <mxCell id="1_bLVVybKre5JMQFerOB-27" value="realiza" style="rhombus;whiteSpace=wrap;html=1;fillColor=#f5f5f5;fontColor=#333333;strokeColor=#666666;" vertex="1" parent="1">
          <mxGeometry x="534" y="230" width="80" height="80" as="geometry" />
        </mxCell>
        <mxCell id="1_bLVVybKre5JMQFerOB-28" value="" style="edgeStyle=orthogonalEdgeStyle;rounded=0;orthogonalLoop=1;jettySize=auto;html=1;" edge="1" parent="1" source="1_bLVVybKre5JMQFerOB-6" target="1_bLVVybKre5JMQFerOB-29">
          <mxGeometry relative="1" as="geometry">
            <Array as="points" />
            <mxPoint x="100" y="180" as="sourcePoint" />
            <mxPoint x="95" y="498" as="targetPoint" />
          </mxGeometry>
        </mxCell>
        <mxCell id="1_bLVVybKre5JMQFerOB-29" value="realiza" style="rhombus;whiteSpace=wrap;html=1;fillColor=#f5f5f5;fontColor=#333333;strokeColor=#666666;" vertex="1" parent="1">
          <mxGeometry x="20" y="280" width="80" height="80" as="geometry" />
        </mxCell>
        <mxCell id="1_bLVVybKre5JMQFerOB-30" style="edgeStyle=orthogonalEdgeStyle;rounded=0;orthogonalLoop=1;jettySize=auto;html=1;entryX=0.25;entryY=0;entryDx=0;entryDy=0;" edge="1" parent="1" source="1_bLVVybKre5JMQFerOB-31" target="1_bLVVybKre5JMQFerOB-19">
          <mxGeometry relative="1" as="geometry" />
        </mxCell>
        <mxCell id="1_bLVVybKre5JMQFerOB-31" value="realiza" style="rhombus;whiteSpace=wrap;html=1;fillColor=#f5f5f5;fontColor=#333333;strokeColor=#666666;" vertex="1" parent="1">
          <mxGeometry x="180" y="230" width="80" height="80" as="geometry" />
        </mxCell>
        <mxCell id="1_bLVVybKre5JMQFerOB-32" value="1,n" style="text;html=1;align=center;verticalAlign=middle;resizable=0;points=[];autosize=1;strokeColor=none;fillColor=none;" vertex="1" parent="1">
          <mxGeometry x="220" y="190" width="40" height="30" as="geometry" />
        </mxCell>
        <mxCell id="1_bLVVybKre5JMQFerOB-33" value="1,n" style="text;html=1;align=center;verticalAlign=middle;resizable=0;points=[];autosize=1;strokeColor=none;fillColor=none;" vertex="1" parent="1">
          <mxGeometry x="440" y="160" width="40" height="30" as="geometry" />
        </mxCell>
        <mxCell id="1_bLVVybKre5JMQFerOB-34" value="1,n" style="text;html=1;align=center;verticalAlign=middle;resizable=0;points=[];autosize=1;strokeColor=none;fillColor=none;" vertex="1" parent="1">
          <mxGeometry x="554" y="140" width="40" height="30" as="geometry" />
        </mxCell>
        <mxCell id="1_bLVVybKre5JMQFerOB-35" value="1,n" style="text;html=1;align=center;verticalAlign=middle;resizable=0;points=[];autosize=1;strokeColor=none;fillColor=none;" vertex="1" parent="1">
          <mxGeometry x="394" y="60" width="40" height="30" as="geometry" />
        </mxCell>
        <mxCell id="1_bLVVybKre5JMQFerOB-36" value="1,n" style="text;html=1;align=center;verticalAlign=middle;resizable=0;points=[];autosize=1;strokeColor=none;fillColor=none;" vertex="1" parent="1">
          <mxGeometry x="360" y="-85" width="40" height="30" as="geometry" />
        </mxCell>
        <mxCell id="1_bLVVybKre5JMQFerOB-37" value="1,n" style="text;html=1;align=center;verticalAlign=middle;resizable=0;points=[];autosize=1;strokeColor=none;fillColor=none;" vertex="1" parent="1">
          <mxGeometry x="60" y="240" width="40" height="30" as="geometry" />
        </mxCell>
        <mxCell id="1_bLVVybKre5JMQFerOB-38" value="1,n" style="text;html=1;align=center;verticalAlign=middle;resizable=0;points=[];autosize=1;strokeColor=none;fillColor=none;" vertex="1" parent="1">
          <mxGeometry x="-160" y="220" width="40" height="30" as="geometry" />
        </mxCell>
        <mxCell id="1_bLVVybKre5JMQFerOB-39" value="1,n" style="text;html=1;align=center;verticalAlign=middle;resizable=0;points=[];autosize=1;strokeColor=none;fillColor=none;" vertex="1" parent="1">
          <mxGeometry x="20" y="170" width="40" height="30" as="geometry" />
        </mxCell>
        <mxCell id="1_bLVVybKre5JMQFerOB-40" value="1,n" style="text;html=1;align=center;verticalAlign=middle;resizable=0;points=[];autosize=1;strokeColor=none;fillColor=none;" vertex="1" parent="1">
          <mxGeometry x="-100" y="-5" width="40" height="30" as="geometry" />
        </mxCell>
        <mxCell id="1_bLVVybKre5JMQFerOB-41" value="1,n" style="text;html=1;align=center;verticalAlign=middle;resizable=0;points=[];autosize=1;strokeColor=none;fillColor=none;" vertex="1" parent="1">
          <mxGeometry x="70" y="30" width="40" height="30" as="geometry" />
        </mxCell>
        <mxCell id="1_bLVVybKre5JMQFerOB-42" value="" style="edgeStyle=orthogonalEdgeStyle;rounded=0;orthogonalLoop=1;jettySize=auto;html=1;entryX=1;entryY=0.25;entryDx=0;entryDy=0;" edge="1" parent="1" source="1_bLVVybKre5JMQFerOB-11" target="1_bLVVybKre5JMQFerOB-43">
          <mxGeometry relative="1" as="geometry">
            <mxPoint x="470" y="90" as="sourcePoint" />
            <mxPoint x="350" y="-95" as="targetPoint" />
          </mxGeometry>
        </mxCell>
        <mxCell id="1_bLVVybKre5JMQFerOB-43" value="tem" style="rhombus;whiteSpace=wrap;html=1;fillColor=#f5f5f5;fontColor=#333333;strokeColor=#666666;" vertex="1" parent="1">
          <mxGeometry x="360" y="-30" width="80" height="80" as="geometry" />
        </mxCell>
        <mxCell id="1_bLVVybKre5JMQFerOB-44" value="" style="edgeStyle=orthogonalEdgeStyle;rounded=0;orthogonalLoop=1;jettySize=auto;html=1;entryX=0;entryY=0.25;entryDx=0;entryDy=0;" edge="1" parent="1" source="1_bLVVybKre5JMQFerOB-6" target="1_bLVVybKre5JMQFerOB-45">
          <mxGeometry relative="1" as="geometry">
            <mxPoint x="160" y="140" as="sourcePoint" />
            <mxPoint x="230" y="-95" as="targetPoint" />
          </mxGeometry>
        </mxCell>
        <mxCell id="1_bLVVybKre5JMQFerOB-45" value="realiza" style="rhombus;whiteSpace=wrap;html=1;fillColor=#f5f5f5;fontColor=#333333;strokeColor=#666666;" vertex="1" parent="1">
          <mxGeometry x="160" y="-10" width="80" height="80" as="geometry" />
        </mxCell>
        <mxCell id="1_bLVVybKre5JMQFerOB-46" value="1,n" style="text;html=1;align=center;verticalAlign=middle;resizable=0;points=[];autosize=1;strokeColor=none;fillColor=none;" vertex="1" parent="1">
          <mxGeometry x="514" y="320" width="40" height="30" as="geometry" />
        </mxCell>
        <mxCell id="1_bLVVybKre5JMQFerOB-47" value="" style="edgeStyle=orthogonalEdgeStyle;rounded=0;orthogonalLoop=1;jettySize=auto;html=1;" edge="1" parent="1" source="1_bLVVybKre5JMQFerOB-17" target="1_bLVVybKre5JMQFerOB-48">
          <mxGeometry relative="1" as="geometry">
            <mxPoint x="210" y="-100" as="sourcePoint" />
            <mxPoint x="-250" y="20" as="targetPoint" />
          </mxGeometry>
        </mxCell>
        <mxCell id="1_bLVVybKre5JMQFerOB-48" value="tem" style="rhombus;whiteSpace=wrap;html=1;fillColor=#f5f5f5;fontColor=#333333;strokeColor=#666666;" vertex="1" parent="1">
          <mxGeometry x="-210" y="-130" width="80" height="70" as="geometry" />
        </mxCell>
        <mxCell id="1_bLVVybKre5JMQFerOB-49" value="1,n" style="text;html=1;align=center;verticalAlign=middle;resizable=0;points=[];autosize=1;strokeColor=none;fillColor=none;" vertex="1" parent="1">
          <mxGeometry x="200" y="-115" width="40" height="30" as="geometry" />
        </mxCell>
        <mxCell id="1_bLVVybKre5JMQFerOB-50" value="1,n" style="text;html=1;align=center;verticalAlign=middle;resizable=0;points=[];autosize=1;strokeColor=none;fillColor=none;" vertex="1" parent="1">
          <mxGeometry x="-250" y="-15" width="40" height="30" as="geometry" />
        </mxCell>
        <mxCell id="1_bLVVybKre5JMQFerOB-51" value="1,n" style="text;html=1;align=center;verticalAlign=middle;resizable=0;points=[];autosize=1;strokeColor=none;fillColor=none;" vertex="1" parent="1">
          <mxGeometry x="110" y="390" width="40" height="30" as="geometry" />
        </mxCell>
        <mxCell id="1_bLVVybKre5JMQFerOB-52" value="1,n" style="text;html=1;align=center;verticalAlign=middle;resizable=0;points=[];autosize=1;strokeColor=none;fillColor=none;" vertex="1" parent="1">
          <mxGeometry x="250" y="380" width="40" height="30" as="geometry" />
        </mxCell>
        <mxCell id="1_bLVVybKre5JMQFerOB-53" value="1,n" style="text;html=1;align=center;verticalAlign=middle;resizable=0;points=[];autosize=1;strokeColor=none;fillColor=none;" vertex="1" parent="1">
          <mxGeometry x="130" y="-170" width="40" height="30" as="geometry" />
        </mxCell>
        <mxCell id="1_bLVVybKre5JMQFerOB-54" value="" style="rounded=0;whiteSpace=wrap;html=1;" vertex="1" parent="1">
          <mxGeometry x="-153" y="960" width="120" height="60" as="geometry" />
        </mxCell>
      </root>
    </mxGraphModel>
  </diagram>
  <diagram id="M30vpU1wNK4alKYjNAZz" name="Página-3">
    <mxGraphModel dx="1050" dy="557" grid="1" gridSize="10" guides="1" tooltips="1" connect="1" arrows="1" fold="1" page="1" pageScale="1" pageWidth="827" pageHeight="1169" math="0" shadow="0">
      <root>
        <mxCell id="0" />
        <mxCell id="1" parent="0" />
        <mxCell id="OnRX3_D4yvcWmmUJDqbK-3" value="" style="edgeStyle=orthogonalEdgeStyle;rounded=0;orthogonalLoop=1;jettySize=auto;html=1;" edge="1" parent="1" source="OnRX3_D4yvcWmmUJDqbK-1" target="OnRX3_D4yvcWmmUJDqbK-2">
          <mxGeometry relative="1" as="geometry" />
        </mxCell>
        <mxCell id="OnRX3_D4yvcWmmUJDqbK-1" value="usuario" style="rounded=0;whiteSpace=wrap;html=1;" vertex="1" parent="1">
          <mxGeometry x="40" y="80" width="80" height="40" as="geometry" />
        </mxCell>
        <mxCell id="OnRX3_D4yvcWmmUJDqbK-5" value="" style="edgeStyle=orthogonalEdgeStyle;rounded=0;orthogonalLoop=1;jettySize=auto;html=1;" edge="1" parent="1" source="OnRX3_D4yvcWmmUJDqbK-2" target="OnRX3_D4yvcWmmUJDqbK-4">
          <mxGeometry relative="1" as="geometry" />
        </mxCell>
        <mxCell id="OnRX3_D4yvcWmmUJDqbK-2" value="classe:&lt;div&gt;string&lt;/div&gt;" style="ellipse;whiteSpace=wrap;html=1;rounded=0;" vertex="1" parent="1">
          <mxGeometry x="160" y="67.5" width="70" height="65" as="geometry" />
        </mxCell>
        <mxCell id="OnRX3_D4yvcWmmUJDqbK-7" value="" style="edgeStyle=orthogonalEdgeStyle;rounded=0;orthogonalLoop=1;jettySize=auto;html=1;" edge="1" parent="1" source="OnRX3_D4yvcWmmUJDqbK-4" target="OnRX3_D4yvcWmmUJDqbK-6">
          <mxGeometry relative="1" as="geometry" />
        </mxCell>
        <mxCell id="OnRX3_D4yvcWmmUJDqbK-4" value="atributos: Nome, CPF, senha, telefone, endereço" style="whiteSpace=wrap;html=1;rounded=0;" vertex="1" parent="1">
          <mxGeometry x="280" y="80" width="140" height="40" as="geometry" />
        </mxCell>
        <mxCell id="OnRX3_D4yvcWmmUJDqbK-6" value="&quot;Maria_Silva&quot;;&amp;nbsp;123.456.789-00&quot;; &quot;SenhaSegura123#&quot;; &quot;(11) 98765-4321&quot;; &quot;Rua das Flores,_123&quot;." style="whiteSpace=wrap;html=1;rounded=0;" vertex="1" parent="1">
          <mxGeometry x="480" y="80" width="200" height="40" as="geometry" />
        </mxCell>
        <mxCell id="OnRX3_D4yvcWmmUJDqbK-51" value="" style="edgeStyle=orthogonalEdgeStyle;rounded=0;orthogonalLoop=1;jettySize=auto;html=1;" edge="1" parent="1" source="OnRX3_D4yvcWmmUJDqbK-52" target="OnRX3_D4yvcWmmUJDqbK-54">
          <mxGeometry relative="1" as="geometry" />
        </mxCell>
        <mxCell id="OnRX3_D4yvcWmmUJDqbK-52" value="profissionais" style="rounded=0;whiteSpace=wrap;html=1;" vertex="1" parent="1">
          <mxGeometry x="40" y="162.5" width="80" height="40" as="geometry" />
        </mxCell>
        <mxCell id="OnRX3_D4yvcWmmUJDqbK-53" value="" style="edgeStyle=orthogonalEdgeStyle;rounded=0;orthogonalLoop=1;jettySize=auto;html=1;" edge="1" parent="1" source="OnRX3_D4yvcWmmUJDqbK-54" target="OnRX3_D4yvcWmmUJDqbK-56">
          <mxGeometry relative="1" as="geometry" />
        </mxCell>
        <mxCell id="OnRX3_D4yvcWmmUJDqbK-54" value="classe:&lt;div&gt;string&lt;/div&gt;" style="ellipse;whiteSpace=wrap;html=1;rounded=0;" vertex="1" parent="1">
          <mxGeometry x="160" y="150" width="70" height="65" as="geometry" />
        </mxCell>
        <mxCell id="OnRX3_D4yvcWmmUJDqbK-55" value="" style="edgeStyle=orthogonalEdgeStyle;rounded=0;orthogonalLoop=1;jettySize=auto;html=1;" edge="1" parent="1" source="OnRX3_D4yvcWmmUJDqbK-56" target="OnRX3_D4yvcWmmUJDqbK-57">
          <mxGeometry relative="1" as="geometry" />
        </mxCell>
        <mxCell id="OnRX3_D4yvcWmmUJDqbK-56" value="atributos: nome, especialização, tempo de sessão, telefone." style="whiteSpace=wrap;html=1;rounded=0;" vertex="1" parent="1">
          <mxGeometry x="280" y="162.5" width="140" height="40" as="geometry" />
        </mxCell>
        <mxCell id="OnRX3_D4yvcWmmUJDqbK-57" value="&quot;Ana_Paula_Rodrigues&quot;; &quot;terapia_cognitivo-comportamental&quot;; &quot;50_minutos&quot;; (41)93154-7531&quot;." style="whiteSpace=wrap;html=1;rounded=0;" vertex="1" parent="1">
          <mxGeometry x="480" y="162.5" width="200" height="40" as="geometry" />
        </mxCell>
        <mxCell id="OnRX3_D4yvcWmmUJDqbK-58" value="" style="edgeStyle=orthogonalEdgeStyle;rounded=0;orthogonalLoop=1;jettySize=auto;html=1;" edge="1" parent="1" source="OnRX3_D4yvcWmmUJDqbK-59" target="OnRX3_D4yvcWmmUJDqbK-61">
          <mxGeometry relative="1" as="geometry" />
        </mxCell>
        <mxCell id="OnRX3_D4yvcWmmUJDqbK-59" value="" style="rounded=0;whiteSpace=wrap;html=1;" vertex="1" parent="1">
          <mxGeometry x="40" y="242.5" width="80" height="40" as="geometry" />
        </mxCell>
        <mxCell id="OnRX3_D4yvcWmmUJDqbK-60" value="" style="edgeStyle=orthogonalEdgeStyle;rounded=0;orthogonalLoop=1;jettySize=auto;html=1;" edge="1" parent="1" source="OnRX3_D4yvcWmmUJDqbK-61" target="OnRX3_D4yvcWmmUJDqbK-63">
          <mxGeometry relative="1" as="geometry" />
        </mxCell>
        <mxCell id="OnRX3_D4yvcWmmUJDqbK-61" value="classe:" style="ellipse;whiteSpace=wrap;html=1;rounded=0;" vertex="1" parent="1">
          <mxGeometry x="160" y="230" width="70" height="65" as="geometry" />
        </mxCell>
        <mxCell id="OnRX3_D4yvcWmmUJDqbK-62" value="" style="edgeStyle=orthogonalEdgeStyle;rounded=0;orthogonalLoop=1;jettySize=auto;html=1;" edge="1" parent="1" source="OnRX3_D4yvcWmmUJDqbK-63" target="OnRX3_D4yvcWmmUJDqbK-64">
          <mxGeometry relative="1" as="geometry" />
        </mxCell>
        <mxCell id="OnRX3_D4yvcWmmUJDqbK-63" value="" style="whiteSpace=wrap;html=1;rounded=0;" vertex="1" parent="1">
          <mxGeometry x="280" y="242.5" width="140" height="40" as="geometry" />
        </mxCell>
        <mxCell id="OnRX3_D4yvcWmmUJDqbK-64" value="" style="whiteSpace=wrap;html=1;rounded=0;" vertex="1" parent="1">
          <mxGeometry x="480" y="242.5" width="160" height="40" as="geometry" />
        </mxCell>
        <mxCell id="OnRX3_D4yvcWmmUJDqbK-65" value="" style="edgeStyle=orthogonalEdgeStyle;rounded=0;orthogonalLoop=1;jettySize=auto;html=1;" edge="1" parent="1" source="OnRX3_D4yvcWmmUJDqbK-66" target="OnRX3_D4yvcWmmUJDqbK-68">
          <mxGeometry relative="1" as="geometry" />
        </mxCell>
        <mxCell id="OnRX3_D4yvcWmmUJDqbK-66" value="" style="rounded=0;whiteSpace=wrap;html=1;" vertex="1" parent="1">
          <mxGeometry x="40" y="322.5" width="80" height="40" as="geometry" />
        </mxCell>
        <mxCell id="OnRX3_D4yvcWmmUJDqbK-67" value="" style="edgeStyle=orthogonalEdgeStyle;rounded=0;orthogonalLoop=1;jettySize=auto;html=1;" edge="1" parent="1" source="OnRX3_D4yvcWmmUJDqbK-68" target="OnRX3_D4yvcWmmUJDqbK-70">
          <mxGeometry relative="1" as="geometry" />
        </mxCell>
        <mxCell id="OnRX3_D4yvcWmmUJDqbK-68" value="classe:" style="ellipse;whiteSpace=wrap;html=1;rounded=0;" vertex="1" parent="1">
          <mxGeometry x="160" y="310" width="70" height="65" as="geometry" />
        </mxCell>
        <mxCell id="OnRX3_D4yvcWmmUJDqbK-69" value="" style="edgeStyle=orthogonalEdgeStyle;rounded=0;orthogonalLoop=1;jettySize=auto;html=1;" edge="1" parent="1" source="OnRX3_D4yvcWmmUJDqbK-70" target="OnRX3_D4yvcWmmUJDqbK-71">
          <mxGeometry relative="1" as="geometry" />
        </mxCell>
        <mxCell id="OnRX3_D4yvcWmmUJDqbK-70" value="" style="whiteSpace=wrap;html=1;rounded=0;" vertex="1" parent="1">
          <mxGeometry x="280" y="322.5" width="140" height="40" as="geometry" />
        </mxCell>
        <mxCell id="OnRX3_D4yvcWmmUJDqbK-71" value="" style="whiteSpace=wrap;html=1;rounded=0;" vertex="1" parent="1">
          <mxGeometry x="480" y="322.5" width="160" height="40" as="geometry" />
        </mxCell>
        <mxCell id="OnRX3_D4yvcWmmUJDqbK-72" value="" style="edgeStyle=orthogonalEdgeStyle;rounded=0;orthogonalLoop=1;jettySize=auto;html=1;" edge="1" parent="1" source="OnRX3_D4yvcWmmUJDqbK-73" target="OnRX3_D4yvcWmmUJDqbK-75">
          <mxGeometry relative="1" as="geometry" />
        </mxCell>
        <mxCell id="OnRX3_D4yvcWmmUJDqbK-73" value="" style="rounded=0;whiteSpace=wrap;html=1;" vertex="1" parent="1">
          <mxGeometry x="40" y="402.5" width="80" height="40" as="geometry" />
        </mxCell>
        <mxCell id="OnRX3_D4yvcWmmUJDqbK-74" value="" style="edgeStyle=orthogonalEdgeStyle;rounded=0;orthogonalLoop=1;jettySize=auto;html=1;" edge="1" parent="1" source="OnRX3_D4yvcWmmUJDqbK-75" target="OnRX3_D4yvcWmmUJDqbK-77">
          <mxGeometry relative="1" as="geometry" />
        </mxCell>
        <mxCell id="OnRX3_D4yvcWmmUJDqbK-75" value="classe:" style="ellipse;whiteSpace=wrap;html=1;rounded=0;" vertex="1" parent="1">
          <mxGeometry x="160" y="390" width="70" height="65" as="geometry" />
        </mxCell>
        <mxCell id="OnRX3_D4yvcWmmUJDqbK-76" value="" style="edgeStyle=orthogonalEdgeStyle;rounded=0;orthogonalLoop=1;jettySize=auto;html=1;" edge="1" parent="1" source="OnRX3_D4yvcWmmUJDqbK-77" target="OnRX3_D4yvcWmmUJDqbK-78">
          <mxGeometry relative="1" as="geometry" />
        </mxCell>
        <mxCell id="OnRX3_D4yvcWmmUJDqbK-77" value="" style="whiteSpace=wrap;html=1;rounded=0;" vertex="1" parent="1">
          <mxGeometry x="280" y="402.5" width="140" height="40" as="geometry" />
        </mxCell>
        <mxCell id="OnRX3_D4yvcWmmUJDqbK-78" value="" style="whiteSpace=wrap;html=1;rounded=0;" vertex="1" parent="1">
          <mxGeometry x="480" y="402.5" width="160" height="40" as="geometry" />
        </mxCell>
      </root>
    </mxGraphModel>
  </diagram>
</mxfile>
